<svg width="130" height="130" viewBox="0 0 130 130" fill="none" xmlns="http://www.w3.org/2000/svg">
<g clip-path="url(#clip0_645_223)">
<rect width="130" height="130" fill="white"/>
<mask id="mask0_645_223" style="mask-type:luminance" maskUnits="userSpaceOnUse" x="0" y="0" width="130" height="130">
<path d="M130 0H0V130H130V0Z" fill="white"/>
</mask>
<g mask="url(#mask0_645_223)">
<path d="M130 0H0V130H130V0Z" fill="#131313"/>
<path d="M130 0H0V130H130V0Z" fill="#131313"/>
<path fill-rule="evenodd" clip-rule="evenodd" d="M44.1301 66.2121C44.142 66.1395 44.1502 66.0654 44.1549 65.9906C44.1576 65.945 44.1589 65.8992 44.1589 65.853C44.1589 64.633 43.1702 63.644 41.9501 63.644C40.7302 63.644 39.7412 64.633 39.7412 65.853C39.7412 67.0729 40.7302 68.062 41.9501 68.062C43.0477 68.062 43.9585 67.2613 44.1301 66.2121Z" fill="white"/>
<path fill-rule="evenodd" clip-rule="evenodd" d="M55.683 65.8526C55.683 58.2681 49.5345 52.1196 41.9499 52.1196C34.3653 52.1196 28.2168 58.2681 28.2168 65.8526C28.2168 73.4372 34.3653 79.5856 41.9499 79.5856C49.5345 79.5856 55.683 73.4372 55.683 65.8526ZM41.9499 76.7283C35.9433 76.7283 31.0743 71.8591 31.0743 65.8526C31.0743 59.8462 35.9433 54.977 41.9499 54.977C47.9564 54.977 52.8256 59.8462 52.8256 65.8526C52.8256 71.8591 47.9564 76.7283 41.9499 76.7283Z" fill="white"/>
<path fill-rule="evenodd" clip-rule="evenodd" d="M54.1561 65.8526C54.1561 59.1114 48.6913 53.6465 41.95 53.6465C35.2087 53.6465 29.7437 59.1114 29.7437 65.8526C29.7437 72.5939 35.2087 78.0588 41.95 78.0588C48.6913 78.0588 54.1561 72.5939 54.1561 65.8526ZM30.4135 65.8526C30.4135 59.481 35.5787 54.316 41.95 54.316C48.3215 54.316 53.4865 59.481 53.4865 65.8526C53.4865 72.2243 48.3215 77.3893 41.95 77.3893C35.5787 77.3893 30.4135 72.2243 30.4135 65.8526Z" fill="#131313"/>
<path fill-rule="evenodd" clip-rule="evenodd" d="M41.895 54.977C41.895 54.9465 41.9198 54.9219 41.9502 54.9219C41.9806 54.9219 42.0054 54.9465 42.0054 54.977V65.8527C42.0054 65.8832 41.9806 65.9078 41.9502 65.9078C41.9198 65.9078 41.895 65.8832 41.895 65.8527V54.977Z" fill="white"/>
<path fill-rule="evenodd" clip-rule="evenodd" d="M44.7033 55.3313C44.711 55.302 44.7412 55.2845 44.7704 55.2924C44.7998 55.3002 44.8173 55.3303 44.8094 55.3596L42.0031 65.867C41.9952 65.8965 41.9652 65.914 41.9358 65.9061C41.9063 65.8983 41.889 65.8682 41.8969 65.8387L44.7033 55.3313Z" fill="white"/>
<path fill-rule="evenodd" clip-rule="evenodd" d="M47.3252 56.398C47.3404 56.3718 47.3741 56.3629 47.4002 56.3779C47.4266 56.393 47.4356 56.4265 47.4206 56.4528L41.9981 65.8801C41.9827 65.9064 41.9493 65.9155 41.9231 65.9005C41.8968 65.8852 41.8877 65.8518 41.9027 65.8256L47.3252 56.398Z" fill="white"/>
<path fill-rule="evenodd" clip-rule="evenodd" d="M49.5825 58.1051C49.6039 58.0835 49.6387 58.0835 49.6602 58.1049C49.6818 58.1262 49.6818 58.161 49.6604 58.1826L41.9891 65.8914C41.9675 65.913 41.9327 65.9132 41.9112 65.8918C41.8897 65.8703 41.8897 65.8357 41.911 65.8139L49.5825 58.1051Z" fill="white"/>
<path fill-rule="evenodd" clip-rule="evenodd" d="M51.3233 60.337C51.3497 60.3217 51.3831 60.3309 51.3985 60.3569C51.4137 60.3834 51.4045 60.4169 51.3785 60.432L41.9775 65.9005C41.9512 65.9158 41.9176 65.9066 41.9024 65.8804C41.8872 65.8542 41.8964 65.8206 41.9224 65.8053L51.3233 60.337Z" fill="white"/>
<path fill-rule="evenodd" clip-rule="evenodd" d="M52.4293 62.9424C52.4585 62.9344 52.4887 62.9517 52.4968 62.9812C52.5047 63.0105 52.4874 63.0406 52.4582 63.0488L41.9645 65.9061C41.9351 65.9142 41.9047 65.8968 41.897 65.8675C41.8889 65.838 41.9062 65.8076 41.9357 65.7999L52.4293 62.9424Z" fill="white"/>
<path fill-rule="evenodd" clip-rule="evenodd" d="M52.8254 65.7451C52.8556 65.7451 52.8802 65.7695 52.8804 65.7996C52.8804 65.83 52.856 65.8548 52.8258 65.8548L41.9502 65.9079C41.9198 65.9079 41.8952 65.8835 41.895 65.8531C41.895 65.8228 41.9194 65.7982 41.9496 65.798L52.8254 65.7451Z" fill="white"/>
<path fill-rule="evenodd" clip-rule="evenodd" d="M52.4849 68.5547C52.5141 68.5622 52.5316 68.5923 52.5241 68.6216C52.5166 68.6509 52.4864 68.6686 52.4572 68.6609L41.9362 65.9059C41.9068 65.8983 41.8891 65.8682 41.8968 65.8389C41.9045 65.8096 41.9343 65.7919 41.9637 65.7997L52.4849 68.5547Z" fill="white"/>
<path fill-rule="evenodd" clip-rule="evenodd" d="M51.4308 71.1816C51.4572 71.1965 51.4664 71.2301 51.4516 71.2565C51.4366 71.2827 51.4031 71.2921 51.3766 71.2771L41.9227 65.9007C41.8966 65.8856 41.8872 65.852 41.9022 65.8256C41.9172 65.7994 41.9508 65.79 41.977 65.8051L51.4308 71.1816Z" fill="white"/>
<path fill-rule="evenodd" clip-rule="evenodd" d="M49.7349 73.4475C49.7566 73.4687 49.7568 73.5035 49.7354 73.5252C49.7143 73.5468 49.6795 73.547 49.6577 73.5258L41.9114 65.8918C41.8899 65.8707 41.8895 65.8359 41.9108 65.8143C41.932 65.7926 41.967 65.7924 41.9885 65.8137L49.7349 73.4475Z" fill="white"/>
<path fill-rule="evenodd" clip-rule="evenodd" d="M44.9116 76.3177C44.9195 76.347 44.9023 76.3771 44.8731 76.3852C44.8439 76.3932 44.8137 76.3763 44.8056 76.3468L41.897 65.8674C41.8891 65.8381 41.906 65.808 41.9354 65.7999C41.9646 65.7917 41.9948 65.8088 42.0029 65.8381L44.9116 76.3177Z" fill="white"/>
<path fill-rule="evenodd" clip-rule="evenodd" d="M39.2993 76.4004C39.2918 76.4299 39.2622 76.4474 39.2326 76.4401C39.2033 76.4325 39.1856 76.4026 39.1931 76.3733L41.8968 65.8391C41.9043 65.8098 41.9341 65.7921 41.9635 65.7996C41.9927 65.8069 42.0106 65.8368 42.0031 65.8661L39.2993 76.4004Z" fill="white"/>
<path fill-rule="evenodd" clip-rule="evenodd" d="M36.6675 75.3596C36.6527 75.386 36.619 75.3954 36.5927 75.3808C36.5661 75.3661 36.5567 75.3323 36.5713 75.3059L41.9019 65.8261C41.9167 65.7994 41.9502 65.79 41.9767 65.8049C42.0032 65.8197 42.0127 65.8531 41.9979 65.8798L36.6675 75.3596Z" fill="white"/>
<path fill-rule="evenodd" clip-rule="evenodd" d="M34.3936 73.6743C34.3727 73.6963 34.3377 73.6967 34.316 73.6755C34.2942 73.6544 34.2936 73.6196 34.315 73.5978L41.9108 65.8143C41.9321 65.7927 41.9669 65.7923 41.9886 65.8133C42.0104 65.8344 42.0108 65.8694 41.9896 65.891L34.3936 73.6743Z" fill="white"/>
<path fill-rule="evenodd" clip-rule="evenodd" d="M32.6309 71.4599C32.6047 71.4754 32.571 71.4668 32.5555 71.4406C32.5401 71.4145 32.5487 71.3808 32.5749 71.3653L41.922 65.8054C41.9482 65.7902 41.982 65.7987 41.9974 65.8247C42.0128 65.851 42.0041 65.8847 41.978 65.9002L32.6309 71.4599Z" fill="white"/>
<path fill-rule="evenodd" clip-rule="evenodd" d="M31.4995 68.8654C31.4704 68.8735 31.44 68.8564 31.4318 68.8273C31.4235 68.7982 31.4406 68.7677 31.4698 68.7594L41.9352 65.7999C41.9643 65.7917 41.9947 65.8088 42.0031 65.8379C42.0112 65.867 41.9941 65.8975 41.9648 65.9059L31.4995 68.8654Z" fill="white"/>
<path fill-rule="evenodd" clip-rule="evenodd" d="M31.3893 63.254C31.3599 63.2466 31.342 63.2167 31.3493 63.1872C31.3566 63.1577 31.3866 63.1398 31.416 63.1471L41.9633 65.7996C41.9928 65.807 42.0106 65.8369 42.0033 65.8664C41.996 65.8959 41.9662 65.9136 41.9366 65.9062L31.3893 63.254Z" fill="white"/>
<path fill-rule="evenodd" clip-rule="evenodd" d="M34.0916 58.3343C34.0696 58.3133 34.0691 58.2783 34.09 58.2566C34.1112 58.2348 34.1458 58.234 34.1677 58.2551L41.9881 65.813C42.0098 65.8342 42.0106 65.869 41.9896 65.8908C41.9687 65.9125 41.9337 65.9133 41.912 65.8924L34.0916 58.3343Z" fill="white"/>
<path fill-rule="evenodd" clip-rule="evenodd" d="M38.8869 55.4169C38.8786 55.388 38.8953 55.3575 38.9244 55.3493C38.9536 55.341 38.984 55.3577 38.9923 55.3867L42.0028 65.8376C42.0111 65.8667 41.9942 65.897 41.9651 65.9054C41.9361 65.9137 41.9057 65.8966 41.8973 65.8677L38.8869 55.4169Z" fill="white"/>
<path fill-rule="evenodd" clip-rule="evenodd" d="M47.4358 75.244C47.4508 75.2701 47.4418 75.3039 47.4156 75.3187C47.3893 75.334 47.3558 75.3248 47.3406 75.2988L41.9027 65.88C41.8877 65.8537 41.8968 65.8202 41.9231 65.8051C41.9493 65.79 41.9827 65.7992 41.9979 65.8254L47.4358 75.244Z" fill="white"/>
<path fill-rule="evenodd" clip-rule="evenodd" d="M42.0054 76.7286C42.0054 76.7592 41.9806 76.7838 41.9502 76.7838C41.9198 76.7838 41.895 76.7592 41.895 76.7286V65.853C41.895 65.8227 41.9198 65.7979 41.9502 65.7979C41.9806 65.7979 42.0054 65.8227 42.0054 65.853V76.7286Z" fill="white"/>
<path fill-rule="evenodd" clip-rule="evenodd" d="M31.0745 65.9081C31.0441 65.9081 31.0195 65.8835 31.0195 65.853C31.0195 65.8227 31.0441 65.7979 31.0745 65.7979H41.9503C41.9807 65.7979 42.0055 65.8227 42.0055 65.853C42.0055 65.8835 41.9807 65.9081 41.9503 65.9081H31.0745Z" fill="white"/>
<path fill-rule="evenodd" clip-rule="evenodd" d="M32.504 60.4622C32.4778 60.4473 32.4688 60.4136 32.4838 60.3873C32.4988 60.3611 32.5325 60.3521 32.5588 60.3672L41.9775 65.805C42.0036 65.82 42.0127 65.8536 41.9977 65.8799C41.9825 65.9061 41.949 65.9153 41.9227 65.9002L32.504 60.4622Z" fill="white"/>
<path fill-rule="evenodd" clip-rule="evenodd" d="M36.4648 56.4616C36.4498 56.4353 36.4588 56.4018 36.4851 56.3867C36.5113 56.3716 36.5449 56.3806 36.5599 56.4068L41.998 65.8256C42.013 65.8519 42.0038 65.8852 41.9776 65.9005C41.9515 65.9156 41.9178 65.9064 41.9026 65.8802L36.4648 56.4616Z" fill="white"/>
<path fill-rule="evenodd" clip-rule="evenodd" d="M49.5906 58.2123C47.6353 56.257 44.9339 55.0475 41.9503 55.0475C38.9664 55.0475 36.2649 56.257 34.3095 58.2123C32.3543 60.1676 31.1449 62.8689 31.1449 65.8528C31.1449 68.8365 32.3543 71.5378 34.3095 73.4933C36.2649 75.4486 38.9664 76.658 41.9503 76.658C44.9339 76.658 47.6353 75.4486 49.5906 73.4933C51.5458 71.5378 52.7554 68.8365 52.7554 65.8528C52.7554 62.8689 51.5458 60.1676 49.5906 58.2123ZM41.9503 54.9067C44.9729 54.9067 47.7095 56.1317 49.6903 58.1126C51.671 60.0935 52.8962 62.83 52.8962 65.8528C52.8962 68.8753 51.671 71.612 49.6903 73.593C47.7095 75.5737 44.9729 76.7988 41.9503 76.7988C38.9276 76.7988 36.1908 75.5737 34.2101 73.593C32.2293 71.612 31.0039 68.8753 31.0039 65.8528C31.0039 62.83 32.2293 60.0935 34.2101 58.1126C36.1908 56.1317 38.9276 54.9067 41.9503 54.9067Z" fill="white"/>
<path fill-rule="evenodd" clip-rule="evenodd" d="M53.3346 67.729C53.3969 67.3492 53.4404 66.9628 53.4644 66.5716C53.479 66.3338 53.4864 66.0943 53.4864 65.853C53.4864 59.4814 48.3214 54.3164 41.9498 54.3164C35.5785 54.3164 30.4131 59.4814 30.4131 65.853C30.4131 72.2247 35.5785 77.3897 41.9498 77.3897C47.6825 77.3897 52.4387 73.2083 53.3346 67.729ZM31.4671 68.7604C31.2158 67.8519 31.0792 66.8957 31.0742 65.9082C31.0439 65.9082 31.0192 65.8834 31.0192 65.853C31.0192 65.8225 31.0439 65.7979 31.0742 65.7979C31.0787 64.9213 31.1867 64.0693 31.3867 63.2535C31.3589 63.2449 31.3421 63.216 31.3492 63.1871C31.3564 63.1586 31.385 63.1407 31.4135 63.1466C31.6571 62.1951 32.0265 61.2941 32.5025 60.4618C32.4773 60.4463 32.469 60.4134 32.4837 60.3878C32.4985 60.3619 32.5314 60.3528 32.5573 60.3668C32.9889 59.6295 33.5046 58.948 34.0914 58.3346C34.0696 58.3137 34.069 58.2787 34.09 58.2569C34.1112 58.2351 34.1458 58.2343 34.1677 58.2555C34.8471 57.5599 35.6192 56.9547 36.4637 56.4603C36.4496 56.4345 36.4589 56.4017 36.4848 56.3868C36.5106 56.372 36.5433 56.3805 36.5587 56.4056C37.286 55.9895 38.066 55.6553 38.886 55.4148C38.8792 55.3865 38.896 55.3576 38.9242 55.3497C38.9525 55.3416 38.9819 55.3572 38.9912 55.3847C39.915 55.1241 40.8889 54.9825 41.8948 54.9772C41.8948 54.9469 41.9196 54.9223 41.95 54.9223C41.9804 54.9223 42.005 54.9469 42.005 54.9772C42.9371 54.9821 43.8414 55.1039 44.7037 55.3289C44.7125 55.3011 44.7419 55.2848 44.7704 55.2925C44.799 55.3001 44.8162 55.3287 44.81 55.3572C45.699 55.5989 46.5429 55.9507 47.3258 56.3968C47.3414 56.3716 47.374 56.3633 47.3998 56.3779C47.4256 56.3927 47.4348 56.4255 47.4208 56.4513C48.2098 56.9117 48.936 57.4683 49.5825 58.1051C49.6039 58.0838 49.6387 58.0838 49.6602 58.1051C49.6815 58.1265 49.6817 58.1613 49.6604 58.1828C50.3006 58.8265 50.8608 59.5496 51.3244 60.3363C51.3506 60.322 51.3835 60.3312 51.3985 60.357C51.4133 60.3827 51.405 60.4156 51.38 60.4313C51.8298 61.2121 52.1856 62.0542 52.4315 62.942C52.46 62.9355 52.489 62.9526 52.4967 62.981C52.5044 63.0097 52.4883 63.039 52.4604 63.048C52.6898 63.9096 52.816 64.8135 52.8252 65.745C52.8554 65.745 52.8802 65.7696 52.8804 65.7997C52.8804 65.8301 52.856 65.8549 52.8258 65.8549C52.8256 66.0693 52.8192 66.2821 52.8069 66.4935C52.7842 66.8851 52.7408 67.2714 52.6777 67.6511C52.6267 67.9571 52.5629 68.2588 52.4871 68.5558C52.515 68.5643 52.5314 68.5934 52.524 68.6219C52.5165 68.6504 52.4879 68.6679 52.4594 68.662C52.2219 69.5522 51.8744 70.3976 51.4323 71.1828C51.4575 71.1981 51.4662 71.2309 51.4515 71.2567C51.4367 71.2825 51.4042 71.2919 51.3779 71.2783C50.9215 72.0697 50.3685 72.7982 49.7346 73.4478C49.7564 73.4691 49.7567 73.5039 49.7354 73.5255C49.714 73.5471 49.6792 73.5473 49.6575 73.5261C48.9964 74.1901 48.2498 74.7693 47.436 75.2458C47.45 75.2718 47.4408 75.3046 47.415 75.3192C47.3892 75.3341 47.3565 75.3258 47.3412 75.3005C46.5839 75.7339 45.7694 76.0783 44.9121 76.3206C44.9185 76.3491 44.9014 76.3778 44.8731 76.3855C44.8448 76.3934 44.8152 76.3773 44.8062 76.3497C43.9129 76.5924 42.9739 76.7238 42.005 76.7287C42.005 76.7592 41.9802 76.7838 41.9498 76.7838C41.9194 76.7838 41.8946 76.7592 41.8946 76.7287C40.9996 76.7242 40.13 76.6115 39.2987 76.4034C39.29 76.4313 39.261 76.4477 39.2325 76.4406C39.2039 76.4331 39.1864 76.4048 39.1923 76.3761C38.3006 76.1432 37.4535 75.7998 36.6665 75.3616C36.6512 75.3868 36.6185 75.3953 36.5925 75.3809C36.5667 75.3664 36.5569 75.3339 36.5706 75.3076C35.7769 74.855 35.0458 74.3053 34.3933 73.6748C34.3721 73.6966 34.3371 73.697 34.3156 73.6758C34.2937 73.6549 34.2933 73.6199 34.3144 73.5981C33.6681 72.9605 33.101 72.2428 32.6294 71.4607C32.6035 71.4754 32.5706 71.4666 32.5552 71.4408C32.5402 71.4152 32.5483 71.3822 32.5731 71.3663C32.1154 70.5898 31.7515 69.751 31.4969 68.8662C31.4685 68.8727 31.4396 68.8559 31.4317 68.8274C31.4239 68.7991 31.4396 68.7698 31.4671 68.7604Z" fill="white"/>
<path fill-rule="evenodd" clip-rule="evenodd" d="M52.016 47.1104L41.4471 65.1953C41.2852 65.4722 41.3985 65.8536 41.6919 65.9828C41.9854 66.112 42.3177 66.0148 42.4794 65.7381L53.0481 47.653C53.21 47.3761 53.0967 46.9949 52.8033 46.8655C52.5098 46.7363 52.1775 46.8336 52.016 47.1104Z" fill="white"/>
<path fill-rule="evenodd" clip-rule="evenodd" d="M68.1656 61.2715L80.3804 49.4822C80.7027 49.1708 80.7119 48.6522 80.4008 48.3295C80.0894 48.0071 79.5706 47.9979 79.2483 48.309L68.1656 59.006L62.6196 64.359C63.0781 64.6603 63.4735 65.0493 63.7821 65.5023L68.1656 61.2715Z" fill="white"/>
<path fill-rule="evenodd" clip-rule="evenodd" d="M77.3281 42.1291L52.806 46.1935C52.4045 46.2598 52.1304 46.6429 52.197 47.0443C52.2635 47.4459 52.6464 47.72 53.0479 47.6534L77.57 43.5891C77.9716 43.5225 78.2456 43.1396 78.1791 42.738C78.1126 42.3367 77.7297 42.0624 77.3281 42.1291Z" fill="white"/>
<path fill-rule="evenodd" clip-rule="evenodd" d="M56.2697 66.9043L41.6693 65.1711C41.3508 65.1335 41.0474 65.3919 41.0474 65.7125C41.0474 66.0333 41.2702 66.2968 41.5887 66.3346L56.1683 68.0653C56.1647 67.9929 56.1627 67.9198 56.1627 67.8464C56.1627 67.5223 56.1997 67.207 56.2697 66.9043Z" fill="white"/>
<path fill-rule="evenodd" clip-rule="evenodd" d="M99.5179 66.2457C99.5179 58.6611 93.3693 52.5127 85.7848 52.5127C78.2002 52.5127 72.0518 58.6611 72.0518 66.2457C72.0518 73.8303 78.2002 79.9787 85.7848 79.9787C93.3694 79.9787 99.5179 73.8303 99.5179 66.2457ZM85.7848 77.1216C79.7783 77.1216 74.9091 72.2521 74.9091 66.2457C74.9091 60.2393 79.7783 55.3698 85.7848 55.3698C91.7912 55.3698 96.6604 60.2393 96.6604 66.2457C96.6604 72.2521 91.7912 77.1216 85.7848 77.1216Z" fill="white"/>
<path fill-rule="evenodd" clip-rule="evenodd" d="M97.9911 66.2457C97.9911 59.5042 92.5261 54.0396 85.785 54.0396C79.0436 54.0396 73.5786 59.5042 73.5786 66.2457C73.5786 72.987 79.0436 78.4519 85.785 78.4519C92.5261 78.4519 97.9911 72.987 97.9911 66.2457ZM74.2482 66.2457C74.2482 59.8741 79.4132 54.7091 85.7848 54.7091C92.1563 54.7091 97.3215 59.8741 97.3215 66.2457C97.3215 72.6173 92.1563 77.7824 85.7848 77.7824C79.4132 77.7824 74.2482 72.6173 74.2482 66.2457Z" fill="#131313"/>
<path fill-rule="evenodd" clip-rule="evenodd" d="M85.73 55.3699C85.73 55.3396 85.7544 55.3149 85.785 55.3149C85.8154 55.3149 85.84 55.3396 85.84 55.3699V66.2457C85.84 66.276 85.8154 66.3009 85.785 66.3009C85.7544 66.3009 85.73 66.276 85.73 66.2457V55.3699Z" fill="white"/>
<path fill-rule="evenodd" clip-rule="evenodd" d="M88.538 55.724C88.5458 55.6945 88.576 55.6772 88.6055 55.6849C88.6349 55.6929 88.6522 55.723 88.6445 55.7525L85.8382 66.2597C85.8303 66.2892 85.8001 66.3065 85.7708 66.2988C85.7414 66.2908 85.7241 66.2607 85.7318 66.2312L88.538 55.724Z" fill="white"/>
<path fill-rule="evenodd" clip-rule="evenodd" d="M91.1597 56.7908C91.1749 56.7645 91.2084 56.7554 91.2347 56.7704C91.2609 56.7855 91.2701 56.8193 91.2547 56.8455L85.8322 66.2728C85.8172 66.2991 85.7836 66.3082 85.7576 66.2932C85.7313 66.2779 85.7222 66.2444 85.7372 66.2181L91.1597 56.7908Z" fill="white"/>
<path fill-rule="evenodd" clip-rule="evenodd" d="M93.4175 58.498C93.4387 58.4766 93.4737 58.4766 93.495 58.498C93.5166 58.5193 93.5168 58.5541 93.4954 58.5755L85.8237 66.2845C85.8023 66.3061 85.7675 66.3061 85.746 66.2847C85.7246 66.2634 85.7246 66.2286 85.746 66.207L93.4175 58.498Z" fill="white"/>
<path fill-rule="evenodd" clip-rule="evenodd" d="M95.1584 60.7295C95.1845 60.7144 95.2182 60.7234 95.2334 60.7496C95.2487 60.7759 95.2395 60.8096 95.2134 60.8247L85.8126 66.2932C85.7862 66.3083 85.7526 66.2993 85.7374 66.2731C85.7222 66.2468 85.7311 66.2133 85.7574 66.198L95.1584 60.7295Z" fill="white"/>
<path fill-rule="evenodd" clip-rule="evenodd" d="M96.2642 63.3349C96.2936 63.327 96.3238 63.3443 96.3319 63.3736C96.3398 63.4031 96.3225 63.4332 96.2931 63.4413L85.7994 66.2987C85.77 66.3066 85.7398 66.2893 85.7319 66.26C85.724 66.2307 85.7411 66.2002 85.7707 66.1925L96.2642 63.3349Z" fill="white"/>
<path fill-rule="evenodd" clip-rule="evenodd" d="M96.6604 66.1377C96.6906 66.1377 96.7154 66.1621 96.7156 66.1924C96.7156 66.2227 96.6911 66.2476 96.6609 66.2476L85.7852 66.3004C85.755 66.3007 85.7302 66.2762 85.73 66.2459C85.73 66.2156 85.7544 66.191 85.7848 66.1908L96.6604 66.1377Z" fill="white"/>
<path fill-rule="evenodd" clip-rule="evenodd" d="M96.3196 68.9472C96.3492 68.9547 96.3667 68.9848 96.3592 69.0143C96.3515 69.0436 96.3215 69.0611 96.2921 69.0536L85.7711 66.2984C85.7419 66.2908 85.7242 66.2609 85.7317 66.2314C85.7394 66.2021 85.7694 66.1846 85.7986 66.1922L96.3196 68.9472Z" fill="white"/>
<path fill-rule="evenodd" clip-rule="evenodd" d="M95.2659 71.5747C95.292 71.5895 95.3015 71.6231 95.2865 71.6495C95.2715 71.6758 95.238 71.6851 95.2117 71.6701L85.7578 66.2937C85.7315 66.2788 85.7222 66.2451 85.737 66.2188C85.7522 66.1926 85.7857 66.183 85.812 66.1981L95.2659 71.5747Z" fill="white"/>
<path fill-rule="evenodd" clip-rule="evenodd" d="M93.5698 73.8402C93.5911 73.8614 93.5915 73.8962 93.5704 73.9177C93.549 73.9393 93.5142 73.9397 93.4927 73.9183L85.7465 66.2845C85.7248 66.2634 85.7244 66.2286 85.7458 66.2068C85.7671 66.1853 85.8019 66.1849 85.8234 66.2062L93.5698 73.8402Z" fill="white"/>
<path fill-rule="evenodd" clip-rule="evenodd" d="M88.7464 76.7104C88.7545 76.7395 88.7372 76.77 88.7081 76.7779C88.6789 76.7861 88.6485 76.7688 88.6406 76.7397L85.732 66.2599C85.7239 66.2308 85.741 66.2005 85.7703 66.1924C85.7995 66.1844 85.8299 66.2015 85.8377 66.2308L88.7464 76.7104Z" fill="white"/>
<path fill-rule="evenodd" clip-rule="evenodd" d="M83.1344 76.7935C83.1269 76.8228 83.0971 76.8407 83.0676 76.8331C83.0384 76.8256 83.0207 76.7957 83.028 76.7664L85.7319 66.2319C85.7394 66.2026 85.7692 66.1851 85.7986 66.1927C85.8278 66.2 85.8457 66.2299 85.8382 66.2592L83.1344 76.7935Z" fill="white"/>
<path fill-rule="evenodd" clip-rule="evenodd" d="M80.5022 75.7522C80.4876 75.7787 80.454 75.7882 80.4276 75.7734C80.4011 75.7585 80.3917 75.725 80.4063 75.6983L85.7369 66.2187C85.7515 66.192 85.7851 66.1827 85.8117 66.1973C85.8382 66.2124 85.8476 66.2458 85.8328 66.2724L80.5022 75.7522Z" fill="white"/>
<path fill-rule="evenodd" clip-rule="evenodd" d="M78.2281 74.0671C78.207 74.0888 78.1722 74.0892 78.1505 74.0681C78.1287 74.0471 78.1281 74.0121 78.1493 73.9904L85.7453 66.207C85.7664 66.1853 85.8014 66.1849 85.823 66.206C85.8449 66.2272 85.8453 66.262 85.8241 66.2835L78.2281 74.0671Z" fill="white"/>
<path fill-rule="evenodd" clip-rule="evenodd" d="M76.4657 71.8525C76.4395 71.8678 76.4059 71.8593 76.3905 71.8332C76.3749 71.8072 76.3838 71.7734 76.4099 71.7577L85.7569 66.1983C85.7832 66.1826 85.8169 66.1911 85.8324 66.2176C85.8476 66.2436 85.8392 66.2774 85.813 66.2927L76.4657 71.8525Z" fill="white"/>
<path fill-rule="evenodd" clip-rule="evenodd" d="M75.3344 69.2579C75.3054 69.2663 75.275 69.249 75.2667 69.2199C75.2585 69.1908 75.2756 69.1603 75.3048 69.1521L85.77 66.1925C85.7992 66.1843 85.8296 66.2014 85.8377 66.2305C85.846 66.2598 85.829 66.2901 85.7996 66.2985L75.3344 69.2579Z" fill="white"/>
<path fill-rule="evenodd" clip-rule="evenodd" d="M75.2244 63.6465C75.1948 63.639 75.1769 63.6091 75.1843 63.5796C75.1918 63.5503 75.2216 63.5324 75.2512 63.5397L85.7985 66.192C85.8277 66.1995 85.8458 66.2294 85.8383 66.2589C85.831 66.2882 85.801 66.3061 85.7717 66.299L75.2244 63.6465Z" fill="white"/>
<path fill-rule="evenodd" clip-rule="evenodd" d="M77.9265 58.7273C77.9047 58.7062 77.904 58.6714 77.9249 58.6496C77.9461 58.6279 77.9809 58.6271 78.0026 58.6482L85.823 66.2061C85.8449 66.2271 85.8455 66.2621 85.8245 66.2838C85.8034 66.3056 85.7688 66.3064 85.7468 66.2855L77.9265 58.7273Z" fill="white"/>
<path fill-rule="evenodd" clip-rule="evenodd" d="M82.7213 55.81C82.7131 55.7809 82.73 55.7506 82.759 55.7423C82.7881 55.7341 82.8186 55.751 82.8269 55.7799L85.8373 66.2308C85.8458 66.2597 85.8288 66.2902 85.7998 66.2985C85.7706 66.3067 85.7402 66.29 85.7319 66.2609L82.7213 55.81Z" fill="white"/>
<path fill-rule="evenodd" clip-rule="evenodd" d="M91.2701 75.6372C91.2853 75.6634 91.2763 75.6968 91.2499 75.7118C91.2238 75.7271 91.1903 75.7179 91.1751 75.6917L85.7372 66.2731C85.7222 66.2468 85.7313 66.2133 85.7576 66.1982C85.7836 66.1832 85.8172 66.1921 85.8322 66.2184L91.2701 75.6372Z" fill="white"/>
<path fill-rule="evenodd" clip-rule="evenodd" d="M85.84 77.121C85.84 77.1515 85.8154 77.1761 85.785 77.1761C85.7544 77.1761 85.73 77.1515 85.73 77.121V66.2456C85.73 66.215 85.7544 66.1904 85.785 66.1904C85.8154 66.1904 85.84 66.215 85.84 66.2456V77.121Z" fill="white"/>
<path fill-rule="evenodd" clip-rule="evenodd" d="M74.9092 66.3005C74.8786 66.3005 74.854 66.2759 74.854 66.2456C74.854 66.215 74.8786 66.1904 74.9092 66.1904H85.7848C85.8152 66.1904 85.8398 66.215 85.8398 66.2456C85.8398 66.2759 85.8152 66.3005 85.7848 66.3005H74.9092Z" fill="white"/>
<path fill-rule="evenodd" clip-rule="evenodd" d="M76.3391 60.8554C76.3128 60.8403 76.3038 60.8068 76.3188 60.7805C76.3338 60.7543 76.3674 60.7451 76.3938 60.7602L85.8124 66.1982C85.8386 66.2133 85.8478 66.2468 85.8324 66.2731C85.8174 66.2993 85.7838 66.3085 85.7578 66.2932L76.3391 60.8554Z" fill="white"/>
<path fill-rule="evenodd" clip-rule="evenodd" d="M80.2992 56.8543C80.2842 56.828 80.2933 56.7943 80.3194 56.7792C80.3458 56.7642 80.3792 56.7733 80.3944 56.7996L85.8321 66.2182C85.8473 66.2444 85.8381 66.278 85.8121 66.2932C85.7858 66.3081 85.7521 66.2991 85.7371 66.2729L80.2992 56.8543Z" fill="white"/>
<path fill-rule="evenodd" clip-rule="evenodd" d="M97.1696 68.1216C97.2317 67.7417 97.2754 67.3556 97.2994 66.964C97.314 66.7264 97.3213 66.4869 97.3213 66.2456C97.3213 59.8742 92.1563 54.709 85.7848 54.709C79.4132 54.709 74.248 59.8742 74.248 66.2456C74.248 72.6172 79.4132 77.7823 85.7848 77.7823C91.5175 77.7823 96.2736 73.6009 97.1696 68.1216ZM93.4254 58.6051C91.47 56.6498 88.7684 55.4404 85.7848 55.4404C82.8011 55.4404 80.0996 56.6498 78.1442 58.6051C76.189 60.5604 74.9796 63.2617 74.9796 66.2456C74.9796 69.2293 76.189 71.9308 78.1442 73.8861C80.0996 75.8414 82.8011 77.0509 85.7848 77.0509C88.7684 77.0509 91.47 75.8414 93.4254 73.8861C95.3806 71.9308 96.59 69.2293 96.59 66.2456C96.59 63.2617 95.3806 60.5604 93.4254 58.6051Z" fill="white"/>
<path fill-rule="evenodd" clip-rule="evenodd" d="M50.7971 43.4379L58.1699 64.2804C58.5801 64.0312 59.0371 63.851 59.5244 63.7551L53.6332 47.1013L52.1546 42.9212C51.9923 42.4618 51.4801 42.2223 51.0217 42.3869C50.5632 42.5515 50.6346 42.9787 50.7971 43.4379Z" fill="white"/>
<path fill-rule="evenodd" clip-rule="evenodd" d="M54.5206 40.7098C51.2833 41.0805 46.958 40.6641 45.788 40.5377C44.2658 40.3735 45.3878 41.2101 45.9018 41.522C48.2031 42.9184 48.3772 44.183 50.7776 43.7548C51.9518 43.5452 56.1631 41.9972 56.9445 41.0319C57.2803 40.6173 57.0593 40.4624 56.7864 40.4079C56.2672 40.3042 55.1305 40.6398 54.5206 40.7098Z" fill="white"/>
<path fill-rule="evenodd" clip-rule="evenodd" d="M60.3327 63.3125C57.8288 63.3125 55.7988 65.3425 55.7988 67.8464C55.7988 70.3504 57.8288 72.3804 60.3327 72.3804C62.8367 72.3804 64.8667 70.3504 64.8667 67.8464C64.8667 65.3423 62.8367 63.3125 60.3327 63.3125ZM56.6456 67.2656C56.8508 65.952 57.7415 64.8652 58.9404 64.3828C59.3706 64.2095 59.8406 64.1143 60.3329 64.1143C60.9469 64.1143 61.5265 64.2626 62.0377 64.5256C63.0094 65.0255 63.7336 65.9398 63.9763 67.0347C64.0344 67.2961 64.065 67.5677 64.065 67.8466C64.065 68.15 64.0288 68.445 63.9602 68.7273C63.7038 69.7875 62.9946 70.671 62.0492 71.1615C61.5352 71.428 60.9515 71.5786 60.3329 71.5786C59.8338 71.5786 59.3577 71.4807 58.9227 71.3027C57.7546 70.8259 56.8825 69.7741 56.6575 68.4989C56.6202 68.2871 56.6006 68.069 56.6006 67.8466C56.6006 67.6489 56.6159 67.455 56.6456 67.2656Z" fill="white"/>
<path fill-rule="evenodd" clip-rule="evenodd" d="M61.2807 58.7127C61.2807 58.0591 60.8642 57.5244 60.3548 57.5244C59.8457 57.5244 59.4292 58.0591 59.4292 58.7127V68.371C59.4292 68.8387 59.7273 69.2214 60.0919 69.2214H60.618C60.9825 69.2214 61.2807 68.8387 61.2807 68.371V58.7127Z" fill="white"/>
<path fill-rule="evenodd" clip-rule="evenodd" d="M83.9652 39.453L84.8054 38.9353C85.9479 38.2314 86.3067 36.7206 85.6027 35.5781L85.2202 34.957C84.5163 33.8144 83.0065 33.4574 81.8629 34.1597L76.8052 37.2644C76.8567 37.3226 76.8977 37.3932 76.9256 37.4782L77.3569 38.7998L82.7004 35.5187C83.0931 35.2776 83.6192 35.4023 83.8609 35.7945L84.2436 36.4156C84.4854 36.8077 84.36 37.3346 83.9679 37.5761L82.9698 38.1913C82.3744 38.5579 81.5965 38.849 82.0975 39.7169C82.5211 40.4509 83.3113 39.8559 83.9652 39.453Z" fill="white"/>
<path fill-rule="evenodd" clip-rule="evenodd" d="M86.4987 66.0584L83.194 55.9379L77.1556 37.4452C77.1533 37.4358 77.1512 37.4265 77.1487 37.4175L77.1294 37.3581C77.1265 37.3493 77.1235 37.3408 77.1202 37.3319C77.0931 37.2649 77.0563 37.2027 77.0117 37.1473C76.8492 36.9602 76.5804 36.8981 76.2973 36.8867C75.9606 36.9532 75.7065 37.2501 75.7065 37.6065C75.7065 37.6266 75.7075 37.6468 75.709 37.6667C75.7098 37.7094 75.7175 37.7552 75.7337 37.8047C75.739 37.8238 75.7452 37.8429 75.7521 37.8612L85.0921 66.5188C85.2185 66.9055 85.7381 67.2797 86.0258 66.9918C86.3133 66.7043 86.625 66.4451 86.4987 66.0584Z" fill="white"/>
<path fill-rule="evenodd" clip-rule="evenodd" d="M65.4024 78.7148C85.4947 78.7148 101.783 79.1822 101.783 79.7585C101.783 80.3351 85.4947 80.8024 65.4024 80.8024C45.31 80.8024 29.022 80.3351 29.022 79.7585C29.022 79.1822 45.31 78.7148 65.4024 78.7148Z" fill="white"/>
<path d="M65.4024 78.7148C85.4947 78.7148 101.783 79.1822 101.783 79.7585C101.783 80.3351 85.4947 80.8024 65.4024 80.8024C45.31 80.8024 29.022 80.3351 29.022 79.7585C29.022 79.1822 45.31 78.7148 65.4024 78.7148Z" stroke="#332C2B" stroke-width="0.5669" stroke-miterlimit="2.6131"/>
<path d="M23.1277 89.9216V88.2534H25.2431C25.3969 88.2534 25.5187 88.2127 25.6085 88.1313C25.6981 88.0499 25.7431 87.9279 25.7431 87.7651C25.7431 87.6227 25.6981 87.5143 25.6085 87.4396C25.5187 87.3582 25.3969 87.3175 25.2431 87.3175H23.1277V85.812H24.82C24.9994 85.812 25.1469 85.7748 25.2623 85.7002C25.3841 85.6255 25.4739 85.5272 25.5315 85.4052C25.5956 85.2831 25.6277 85.1474 25.6277 84.9983C25.6277 84.7338 25.5539 84.5609 25.4066 84.4795C25.2591 84.3914 25.0892 84.3473 24.8969 84.3473H23.1277V82.5977H25.07C25.9481 82.5977 26.5989 82.7773 27.0219 83.1368C27.4514 83.4893 27.6662 84.0014 27.6662 84.6728C27.6662 84.9576 27.6085 85.2357 27.4931 85.5069C27.3777 85.7781 27.2077 86.0222 26.9835 86.2393C26.7591 86.4494 26.4802 86.6089 26.1469 86.7174L26.0604 86.3003C26.6181 86.3274 27.0442 86.5003 27.3392 86.8191C27.634 87.131 27.7815 87.5143 27.7815 87.9685C27.7815 88.4025 27.6821 88.7654 27.4835 89.057C27.2912 89.3418 27.009 89.5589 26.6373 89.708C26.2719 89.8504 25.8327 89.9216 25.32 89.9216H23.1277ZM22.0508 89.9216V82.5977H24.0892V89.9216H22.0508ZM28.821 82.5977H30.8594V89.9216H28.821V82.5977ZM31.8562 86.2596C31.8562 85.4865 32.0004 84.8186 32.2889 84.2557C32.5837 83.6861 33.0227 83.2487 33.6062 82.9435C34.1958 82.6316 34.9331 82.4756 35.8177 82.4756C36.1446 82.4756 36.4427 82.5026 36.7119 82.557C36.9812 82.6044 37.1831 82.6587 37.3177 82.7197V84.5304H37.2023C37.0677 84.4557 36.8914 84.3947 36.6735 84.3473C36.4554 84.2929 36.2215 84.2659 35.9715 84.2659C35.4715 84.2659 35.0708 84.354 34.7696 84.5304C34.4746 84.6998 34.26 84.9372 34.1254 85.2424C33.9971 85.5409 33.9331 85.8798 33.9331 86.2596C33.9331 86.6395 33.9971 86.9818 34.1254 87.287C34.26 87.5855 34.4746 87.8227 34.7696 87.9991C35.0708 88.1685 35.4715 88.2534 35.9715 88.2534C36.2215 88.2534 36.4554 88.2263 36.6735 88.172C36.8914 88.1177 37.0677 88.0566 37.2023 87.9889H37.3177V89.7995C37.1831 89.8606 36.9812 89.9149 36.7119 89.9623C36.4427 90.0166 36.1446 90.0437 35.8177 90.0437C34.9331 90.0437 34.1958 89.8911 33.6062 89.5859C33.0227 89.274 32.5837 88.8366 32.2889 88.2737C32.0004 87.7041 31.8562 87.0327 31.8562 86.2596ZM40.1719 89.9216V86.8903L37.9796 82.7197V82.5977H40.095L41.6719 85.8222L40.9315 85.8324L42.3642 82.5977H44.4796V82.7197L42.2104 86.8903V89.9216H40.1719ZM44.4387 86.2596C44.4387 85.4865 44.5829 84.8186 44.8714 84.2557C45.1664 83.6861 45.6054 83.2487 46.1887 82.9435C46.7785 82.6316 47.5156 82.4756 48.4002 82.4756C48.7271 82.4756 49.0252 82.5026 49.2944 82.557C49.5637 82.6044 49.7656 82.6587 49.9002 82.7197V84.5304H49.7848C49.6502 84.4557 49.474 84.3947 49.256 84.3473C49.0381 84.2929 48.804 84.2659 48.554 84.2659C48.054 84.2659 47.6535 84.354 47.3521 84.5304C47.0573 84.6998 46.8425 84.9372 46.7079 85.2424C46.5798 85.5409 46.5156 85.8798 46.5156 86.2596C46.5156 86.6395 46.5798 86.9818 46.7079 87.287C46.8425 87.5855 47.0573 87.8227 47.3521 87.9991C47.6535 88.1685 48.054 88.2534 48.554 88.2534C48.804 88.2534 49.0381 88.2263 49.256 88.172C49.474 88.1177 49.6502 88.0566 49.7848 87.9889H49.9002V89.7995C49.7656 89.8606 49.5637 89.9149 49.2944 89.9623C49.0252 90.0166 48.7271 90.0437 48.4002 90.0437C47.5156 90.0437 46.7785 89.8911 46.1887 89.5859C45.6054 89.274 45.1664 88.8366 44.8714 88.2737C44.5829 87.7041 44.4387 87.0327 44.4387 86.2596ZM50.9814 89.9216V82.5977H53.0198V88.0499H55.5198V89.9216H50.9814ZM56.4839 89.9216V82.5977H58.5223V89.9216H56.4839ZM57.5608 89.9216V88.0499H61.2531V89.9216H57.5608ZM57.5608 87.1955V85.4459H60.7146V87.1955H57.5608ZM57.5608 84.4693V82.5977H61.1762V84.4693H57.5608ZM64.5594 89.9216V82.5977H66.5979V89.9216H64.5594ZM65.6364 89.9216V88.0499H69.3287V89.9216H65.6364ZM65.6364 87.1955V85.4459H68.7902V87.1955H65.6364ZM65.6364 84.4693V82.5977H69.2517V84.4693H65.6364ZM74.6356 89.9216L72.751 86.9513L69.9817 82.7197V82.5977H72.2125L74.0971 85.5679L76.8664 89.7995V89.9216H74.6356ZM70.0202 89.9216V89.7995L72.8279 85.6086L74.6356 82.5977H76.8279V82.7197L74.0202 86.9106L72.2125 89.9216H70.0202ZM78.6321 88.2941V86.5851H80.2475C80.5423 86.5851 80.7764 86.5241 80.9494 86.402C81.1225 86.28 81.2475 86.1207 81.3244 85.9239C81.4014 85.7272 81.4398 85.5136 81.4398 85.2831C81.4398 84.9779 81.3533 84.7541 81.1802 84.6117C81.0071 84.4626 80.786 84.3879 80.5167 84.3879H78.6321V82.5977H80.4783C81.4783 82.5977 82.2217 82.8351 82.709 83.3097C83.1962 83.7776 83.4398 84.4083 83.4398 85.2017C83.4398 85.656 83.3692 86.0731 83.2283 86.4529C83.0937 86.8327 82.8948 87.1615 82.6321 87.4396C82.3692 87.7108 82.0423 87.9211 81.6514 88.0703C81.2667 88.2194 80.8244 88.2941 80.3244 88.2941H78.6321ZM77.5552 89.9216V82.5977H79.5937V89.9216H77.5552ZM85.4773 88.3754V86.6665H87.0927C87.4004 86.6665 87.6473 86.602 87.8331 86.4732C88.019 86.3445 88.1537 86.1782 88.2369 85.9748C88.3204 85.7714 88.3619 85.5543 88.3619 85.3238C88.3619 84.9983 88.269 84.7609 88.0831 84.6117C87.9037 84.4626 87.6633 84.3879 87.3619 84.3879H85.4773V82.5977H87.3619C88.0608 82.5977 88.6312 82.7095 89.0735 82.9333C89.5223 83.1504 89.8556 83.4588 90.0735 83.859C90.2915 84.2523 90.4004 84.7135 90.4004 85.2424C90.4004 85.724 90.3108 86.1579 90.1312 86.5444C89.9581 86.931 89.721 87.26 89.4196 87.5311C89.1185 87.8023 88.7723 88.0127 88.3812 88.1618C87.9966 88.3042 87.5927 88.3754 87.1696 88.3754H85.4773ZM84.4004 89.9216V82.5977H86.4389V89.9216H84.4004ZM88.285 89.9216L87.0927 87.9685L88.9485 87.6023L90.5158 89.7995V89.9216H88.285ZM91.5556 89.9216V82.5977H93.594V89.9216H91.5556ZM92.6325 89.9216V88.0499H96.3248V89.9216H92.6325ZM92.6325 87.1955V85.4459H95.7864V87.1955H92.6325ZM92.6325 84.4693V82.5977H96.2479V84.4693H92.6325ZM97.3269 87.7651H97.4423C97.6025 87.8532 97.8014 87.9415 98.0385 88.0296C98.2756 88.1177 98.5321 88.1923 98.8077 88.2534C99.0898 88.3077 99.3654 88.3347 99.6346 88.3347C99.9039 88.3347 100.122 88.3211 100.288 88.2941C100.462 88.2601 100.587 88.2127 100.663 88.1516C100.747 88.0839 100.788 87.9956 100.788 87.8872C100.788 87.7448 100.737 87.6363 100.635 87.5617C100.532 87.487 100.327 87.426 100.019 87.3786L99.4808 87.2972C98.936 87.2158 98.4871 87.0801 98.1346 86.8903C97.7821 86.6936 97.5192 86.4427 97.3462 86.1376C97.1794 85.8257 97.0962 85.4595 97.0962 85.039C97.0962 84.5236 97.2083 84.0761 97.4327 83.6962C97.6635 83.3097 98.0289 83.0113 98.5289 82.8011C99.0352 82.584 99.6987 82.4756 100.519 82.4756C100.885 82.4756 101.231 82.5061 101.558 82.5671C101.885 82.6282 102.154 82.7061 102.365 82.8011V84.5914H102.25C102.038 84.4897 101.766 84.3981 101.433 84.3167C101.106 84.2287 100.75 84.1845 100.365 84.1845C100.058 84.1845 99.8077 84.2116 99.6154 84.2659C99.4231 84.3202 99.2821 84.4016 99.1923 84.51C99.1025 84.6184 99.0577 84.7541 99.0577 84.9169C99.0577 85.1203 99.1313 85.2695 99.2788 85.3645C99.4263 85.4526 99.686 85.5272 100.058 85.5883L100.558 85.6696C100.955 85.7307 101.324 85.8391 101.663 85.9952C102.003 86.1512 102.276 86.3782 102.481 86.6767C102.686 86.9682 102.788 87.3582 102.788 87.8465C102.788 88.2601 102.705 88.6094 102.538 88.8942C102.372 89.179 102.141 89.4063 101.846 89.5757C101.551 89.7385 101.215 89.8571 100.837 89.9318C100.458 90.0064 100.058 90.0437 99.6346 90.0437C99.3398 90.0437 99.0448 90.0233 98.75 89.9826C98.4552 89.9419 98.1827 89.8911 97.9327 89.83C97.6827 89.769 97.4808 89.7045 97.3269 89.6368V87.7651ZM103.637 87.7651H103.752C103.913 87.8532 104.111 87.9415 104.348 88.0296C104.586 88.1177 104.842 88.1923 105.118 88.2534C105.4 88.3077 105.675 88.3347 105.945 88.3347C106.214 88.3347 106.432 88.3211 106.598 88.2941C106.772 88.2601 106.897 88.2127 106.973 88.1516C107.057 88.0839 107.098 87.9956 107.098 87.8872C107.098 87.7448 107.047 87.6363 106.945 87.5617C106.842 87.487 106.637 87.426 106.329 87.3786L105.791 87.2972C105.246 87.2158 104.797 87.0801 104.445 86.8903C104.092 86.6936 103.829 86.4427 103.656 86.1376C103.49 85.8257 103.406 85.4595 103.406 85.039C103.406 84.5236 103.518 84.0761 103.743 83.6962C103.973 83.3097 104.339 83.0113 104.839 82.8011C105.345 82.584 106.009 82.4756 106.829 82.4756C107.195 82.4756 107.541 82.5061 107.868 82.5671C108.195 82.6282 108.464 82.7061 108.675 82.8011V84.5914H108.56C108.348 84.4897 108.076 84.3981 107.743 84.3167C107.416 84.2287 107.06 84.1845 106.675 84.1845C106.368 84.1845 106.118 84.2116 105.925 84.2659C105.733 84.3202 105.592 84.4016 105.502 84.51C105.413 84.6184 105.368 84.7541 105.368 84.9169C105.368 85.1203 105.442 85.2695 105.589 85.3645C105.736 85.4526 105.996 85.5272 106.368 85.5883L106.868 85.6696C107.265 85.7307 107.634 85.8391 107.973 85.9952C108.313 86.1512 108.586 86.3782 108.791 86.6767C108.996 86.9682 109.098 87.3582 109.098 87.8465C109.098 88.2601 109.015 88.6094 108.848 88.8942C108.682 89.179 108.451 89.4063 108.156 89.5757C107.861 89.7385 107.525 89.8571 107.147 89.9318C106.768 90.0064 106.368 90.0437 105.945 90.0437C105.65 90.0437 105.355 90.0233 105.06 89.9826C104.765 89.9419 104.493 89.8911 104.243 89.83C103.993 89.769 103.791 89.7045 103.637 89.6368V87.7651Z" fill="white"/>
<path d="M41.0176 95.0551C41.0176 94.6687 41.0812 94.3389 41.2083 94.0655C41.3397 93.7921 41.5201 93.5838 41.7499 93.4405C41.9837 93.293 42.2524 93.2192 42.556 93.2192C42.8597 93.2192 43.1262 93.293 43.356 93.4405C43.5899 93.5838 43.7705 93.7921 43.8976 94.0655C44.0289 94.3389 44.0945 94.6687 44.0945 95.0551C44.0945 95.4414 44.0289 95.7712 43.8976 96.0446C43.7705 96.318 43.5899 96.5286 43.356 96.6761C43.1262 96.8193 42.8597 96.8909 42.556 96.8909C42.2443 96.8909 41.9735 96.8193 41.7437 96.6761C41.5139 96.5286 41.3355 96.318 41.2083 96.0446C41.0812 95.7712 41.0176 95.4414 41.0176 95.0551ZM41.596 95.0551C41.596 95.489 41.6782 95.8167 41.8422 96.0381C42.0105 96.2594 42.2483 96.3701 42.556 96.3701C42.8637 96.3701 43.0997 96.2594 43.2637 96.0381C43.432 95.8167 43.516 95.489 43.516 95.0551C43.516 94.6166 43.432 94.2891 43.2637 94.072C43.0997 93.8507 42.8637 93.74 42.556 93.74C42.2483 93.74 42.0105 93.8507 41.8422 94.072C41.6782 94.2891 41.596 94.6166 41.596 95.0551ZM46.3622 96.8388V94.5993C46.3622 94.5125 46.3601 94.3998 46.356 94.2608C46.356 94.1219 46.352 93.9852 46.3437 93.8507C46.3397 93.7162 46.3293 93.6098 46.313 93.5317L46.3253 93.4796C46.432 93.4363 46.5674 93.395 46.7314 93.3559C46.8955 93.3168 47.0616 93.2843 47.2299 93.2582C47.3982 93.2322 47.5437 93.2192 47.6668 93.2192C47.872 93.2192 48.0628 93.243 48.2391 93.2908C48.4155 93.3341 48.5714 93.4145 48.7068 93.5317C48.8462 93.6446 48.953 93.8008 49.0268 94.0004C49.1047 94.1957 49.1437 94.4474 49.1437 94.7556V96.8388H48.5776V94.8077C48.5776 94.5212 48.5385 94.3021 48.4607 94.1501C48.3828 93.9939 48.2699 93.8875 48.1222 93.8311C47.9745 93.7703 47.7982 93.74 47.593 93.74C47.4616 93.74 47.3201 93.7553 47.1683 93.7856C47.0207 93.8159 46.8914 93.8529 46.7807 93.8963L46.8791 93.714C46.8955 93.7791 46.9078 93.8615 46.916 93.9613C46.9243 94.0568 46.9283 94.1567 46.9283 94.2608V96.8388H46.3622ZM51.6524 96.8388V93.0109C51.6524 92.924 51.6503 92.8113 51.6462 92.6723C51.6462 92.5334 51.642 92.3967 51.6339 92.2622C51.6297 92.1277 51.6195 92.0213 51.6032 91.9432L51.6155 91.8911H52.2185V96.8388H51.6524ZM55.038 92.6723C54.9355 92.6723 54.8472 92.6375 54.7733 92.5682C54.7037 92.4943 54.6687 92.3989 54.6687 92.2817C54.6687 92.1645 54.7037 92.0712 54.7733 92.0018C54.8472 91.9279 54.9355 91.8911 55.038 91.8911C55.1447 91.8911 55.233 91.9279 55.3026 92.0018C55.3724 92.0712 55.4072 92.1645 55.4072 92.2817C55.4072 92.3989 55.3724 92.4943 55.3026 92.5682C55.233 92.6375 55.1447 92.6723 55.038 92.6723ZM54.7549 96.8388V94.4171C54.7549 94.3302 54.753 94.2175 54.7487 94.0785C54.7487 93.9396 54.7447 93.8029 54.7364 93.6684C54.7324 93.5339 54.7222 93.4275 54.7057 93.3494L54.718 93.2973H55.321V96.8388H54.7549ZM57.8576 96.8388V94.5993C57.8576 94.5125 57.8555 94.3998 57.8514 94.2608C57.8514 94.1219 57.8474 93.9852 57.8391 93.8507C57.8351 93.7162 57.8247 93.6098 57.8083 93.5317L57.8207 93.4796C57.9274 93.4363 58.0628 93.395 58.2268 93.3559C58.3908 93.3168 58.557 93.2843 58.7253 93.2582C58.8935 93.2322 59.0391 93.2192 59.1622 93.2192C59.3674 93.2192 59.5582 93.243 59.7345 93.2908C59.9108 93.3341 60.0668 93.4145 60.2022 93.5317C60.3416 93.6446 60.4483 93.8008 60.5222 94.0004C60.6001 94.1957 60.6391 94.4474 60.6391 94.7556V96.8388H60.073V94.8077C60.073 94.5212 60.0339 94.3021 59.956 94.1501C59.8782 93.9939 59.7653 93.8875 59.6176 93.8311C59.4699 93.7703 59.2935 93.74 59.0883 93.74C58.957 93.74 58.8155 93.7553 58.6637 93.7856C58.516 93.8159 58.3868 93.8529 58.276 93.8963L58.3745 93.714C58.3908 93.7791 58.4032 93.8615 58.4114 93.9613C58.4197 94.0568 58.4237 94.1567 58.4237 94.2608V96.8388H57.8576ZM64.7232 96.8909C64.4114 96.8909 64.1385 96.8519 63.9047 96.7737C63.6749 96.6913 63.4822 96.5719 63.3262 96.4157C63.1745 96.2594 63.0616 96.0684 62.9878 95.8428C62.9139 95.6127 62.877 95.3503 62.877 95.0551C62.877 94.6862 62.9407 94.365 63.0678 94.0916C63.1991 93.8139 63.3795 93.599 63.6093 93.447C63.8432 93.2951 64.116 93.2192 64.4278 93.2192C64.7887 93.2192 65.0801 93.2973 65.3016 93.4536C65.5232 93.6098 65.681 93.8289 65.7755 94.1111C65.8739 94.3933 65.917 94.7208 65.9047 95.0941L65.8985 95.2764H63.2708V94.7816H65.3139V94.7295C65.3139 94.404 65.2401 94.1589 65.0924 93.9939C64.9447 93.8246 64.7232 93.74 64.4278 93.74C64.2555 93.74 64.0955 93.7791 63.9478 93.8572C63.8001 93.9353 63.681 94.0677 63.5908 94.2543C63.5007 94.4409 63.4555 94.6948 63.4555 95.016V95.0551C63.4555 95.3893 63.5108 95.6518 63.6216 95.8428C63.7324 96.0338 63.8841 96.1705 64.077 96.2529C64.2739 96.3311 64.4976 96.3701 64.7478 96.3701C64.957 96.3701 65.1355 96.3483 65.2831 96.305C65.4308 96.2617 65.5478 96.2139 65.6339 96.1618H65.6832V96.6956C65.5847 96.7477 65.4555 96.7933 65.2955 96.8323C65.1355 96.8714 64.9447 96.8909 64.7232 96.8909ZM70.831 96.1357H70.8803C71.028 96.2051 71.1941 96.2617 71.3787 96.305C71.5674 96.3483 71.7541 96.3701 71.9387 96.3701C71.9962 96.3701 72.072 96.3679 72.1664 96.3636C72.2649 96.3549 72.3633 96.3353 72.4618 96.305C72.5643 96.2747 72.6505 96.2226 72.7203 96.1488C72.7901 96.0706 72.8249 95.9622 72.8249 95.8233C72.8249 95.667 72.7655 95.5563 72.6464 95.4912C72.5274 95.4261 72.3633 95.3763 72.1541 95.3415L71.8587 95.2894C71.5101 95.2286 71.2516 95.1244 71.0833 94.9769C70.9151 94.825 70.831 94.6124 70.831 94.3389C70.831 94.1479 70.8782 93.9701 70.9726 93.8051C71.071 93.6358 71.227 93.5014 71.4403 93.4015C71.6578 93.2973 71.947 93.2452 72.308 93.2452C72.468 93.2452 72.6218 93.2605 72.7695 93.2908C72.9212 93.3168 73.0464 93.3494 73.1449 93.3885V93.9223H73.0956C72.9603 93.8702 72.831 93.8311 72.708 93.8051C72.5849 93.7791 72.4433 93.766 72.2833 93.766C72.0003 93.766 71.7766 93.8094 71.6126 93.8963C71.4526 93.9786 71.3726 94.1198 71.3726 94.3194C71.3726 94.4714 71.4301 94.5798 71.5449 94.6449C71.6639 94.71 71.828 94.7599 72.0372 94.7947L72.3326 94.8467C72.5212 94.877 72.6935 94.9314 72.8495 95.0095C73.0055 95.0876 73.1305 95.194 73.2249 95.3285C73.3193 95.4587 73.3664 95.6237 73.3664 95.8233C73.3664 96.1748 73.2474 96.4417 73.0095 96.624C72.7716 96.802 72.4064 96.8909 71.9141 96.8909C71.7049 96.8909 71.508 96.8736 71.3233 96.8388C71.1428 96.8041 70.9787 96.7607 70.831 96.7086V96.1357ZM75.5326 96.8388V93.0109C75.5326 92.924 75.5305 92.8113 75.5264 92.6723C75.5264 92.5334 75.5224 92.3967 75.5141 92.2622C75.5101 92.1277 75.4997 92.0213 75.4833 91.9432L75.4957 91.8911H76.0987V93.6554L75.9818 93.4666C76.1131 93.4015 76.2566 93.3451 76.4126 93.2973C76.5726 93.2452 76.7551 93.2192 76.9603 93.2192C77.1326 93.2192 77.2987 93.243 77.4587 93.2908C77.6228 93.3341 77.7685 93.4145 77.8957 93.5317C78.0228 93.6446 78.1233 93.8008 78.1972 94.0004C78.2751 94.1957 78.3141 94.4474 78.3141 94.7556V96.8388H77.748V94.8337C77.748 94.5473 77.7089 94.3282 77.631 94.1762C77.5572 94.0199 77.4505 93.9135 77.311 93.8572C77.1757 93.7964 77.0178 93.766 76.8372 93.766C76.7305 93.766 76.6239 93.7768 76.5172 93.7986C76.4147 93.8204 76.3162 93.8484 76.2218 93.8832C76.1316 93.9135 76.0495 93.9461 75.9757 93.9809L76.0987 93.6814V96.8388H75.5326ZM80.552 95.0551C80.552 94.6687 80.6157 94.3389 80.7428 94.0655C80.8741 93.7921 81.0545 93.5838 81.2843 93.4405C81.5182 93.293 81.7868 93.2192 82.0905 93.2192C82.3941 93.2192 82.6607 93.293 82.8905 93.4405C83.1243 93.5838 83.3049 93.7921 83.432 94.0655C83.5633 94.3389 83.6289 94.6687 83.6289 95.0551C83.6289 95.4414 83.5633 95.7712 83.432 96.0446C83.3049 96.318 83.1243 96.5286 82.8905 96.6761C82.6607 96.8193 82.3941 96.8909 82.0905 96.8909C81.7787 96.8909 81.508 96.8193 81.2782 96.6761C81.0483 96.5286 80.8699 96.318 80.7428 96.0446C80.6157 95.7712 80.552 95.4414 80.552 95.0551ZM81.1305 95.0551C81.1305 95.489 81.2126 95.8167 81.3766 96.0381C81.5449 96.2594 81.7828 96.3701 82.0905 96.3701C82.3982 96.3701 82.6341 96.2594 82.7981 96.0381C82.9664 95.8167 83.0505 95.489 83.0505 95.0551C83.0505 94.6166 82.9664 94.2891 82.7981 94.072C82.6341 93.8507 82.3982 93.74 82.0905 93.74C81.7828 93.74 81.5449 93.8507 81.3766 94.072C81.2126 94.2891 81.1305 94.6166 81.1305 95.0551ZM85.8966 98.3492V94.5733C85.8966 94.4952 85.8945 94.3888 85.8905 94.2543C85.8905 94.1198 85.8862 93.9852 85.8781 93.8507C85.8739 93.7162 85.8637 93.6098 85.8474 93.5317L85.8597 93.4796C86.0401 93.4015 86.2391 93.3386 86.4566 93.2908C86.6782 93.243 86.8935 93.2192 87.1028 93.2192C87.3612 93.2192 87.593 93.2605 87.7981 93.3429C88.0074 93.4253 88.1858 93.5469 88.3335 93.7075C88.4812 93.8637 88.5939 94.0547 88.672 94.2804C88.7499 94.506 88.7889 94.7643 88.7889 95.0551C88.7889 95.3458 88.7478 95.6062 88.6658 95.8363C88.5837 96.0664 88.4668 96.2617 88.3151 96.4222C88.1632 96.5827 87.9785 96.7064 87.7612 96.7933C87.5437 96.8757 87.2997 96.917 87.0289 96.917C86.9016 96.917 86.7745 96.9017 86.6474 96.8714C86.5243 96.8454 86.4258 96.8236 86.352 96.8063L86.3889 96.2725C86.4381 96.3028 86.512 96.331 86.6105 96.3571C86.713 96.3831 86.8524 96.3962 87.0289 96.3962C87.4228 96.3962 87.7182 96.2812 87.9151 96.0511C88.112 95.821 88.2105 95.489 88.2105 95.0551C88.2105 94.6166 88.1099 94.2891 87.9089 94.072C87.7078 93.8507 87.4228 93.74 87.0535 93.74C86.9139 93.74 86.7785 93.7573 86.6474 93.7921C86.5201 93.8224 86.4155 93.8615 86.3335 93.9093L86.4258 93.727C86.4382 93.7921 86.4462 93.8724 86.4505 93.9679C86.4585 94.0633 86.4628 94.1609 86.4628 94.2608V98.3492H85.8966Z" fill="white"/>
</g>
</g>
<defs>
<clipPath id="clip0_645_223">
<rect width="130" height="130" fill="white"/>
</clipPath>
</defs>
</svg>
